# xmcd
#
# Track frame offsets:
#	150
#	8507
#	12292
#	28137
#	40325
#	53787
#	73735
#	85615
#	97750
#	110407
#
# Disc length: 1545 seconds
#
# Revision: 1
# Processed by: cddbd v1.5.1PL0 Copyright (c) Steve Scherf et al.
# Submitted via: audiograbber 1.83.01
#
DISCID=6e06070a
DTITLE=Lee Greenwood - Country collection
DYEAR=1994
DGENRE=Country
TTITLE0=Ring On Her Finger, Time On Her Hands
TTITLE1=Ain't no Trick
TTITLE2=Fools Gold
TTITLE3=You've Got A Good Love Comin'
TTITLE4=I'll Never Stop Loving You
TTITLE5=God Bless The U.S.A.
TTITLE6=I.O.U
TTITLE7=It Turns Me Inside Out
TTITLE8=Thankyou For Changing My Life
TTITLE9=Mc Donalds Theme
EXTD=
EXTT0=
EXTT1=
EXTT2=
EXTT3=
EXTT4=
EXTT5=
EXTT6=
EXTT7=
EXTT8=
EXTT9=
PLAYORDER=
